# xmcd
#
# Track frame offsets:
#	150
#	12088
#	23419
#	35645
#	47487
#	64013
#	76355
#	87070
#	96320
#	107114
#	120944
#
# Disc length: 1750 seconds
#
# Revision: 0
# Processed by: cddbd v1.5.2PL0 Copyright (c) Steve Scherf et al.
# Submitted via: SynApp - FreeCDDB Version: 2.2
#
DISCID=7606d40b
DTITLE=Johnny Cash - Destination Victoria Station
DYEAR=1992
DGENRE=Country
TTITLE0=Johnny Cash - Casey Jones
TTITLE1=Johnny Cash - Hey Porter
TTITLE2=Johnny Cash - John Henry
TTITLE3=Johnny Cash - Wabash Cannonball
TTITLE4=Johnny Cash - City Of New Orlens
TTITLE5=Johnny Cash - Folsom Prison Prison Blues
TTITLE6=Johnny Cash - Crystal Chandeliers And Burgun
TTITLE7=Johnny Cash - Wreck Of The Old 97
TTITLE8=Johnny Cash - Waitin' For A Train
TTITLE9=Johnny Cash - Orange Blossom Special
TTITLE10=Johnny Cash - Destination Victoria Station
EXTD=
EXTT0=
EXTT1=
EXTT2=
EXTT3=
EXTT4=
EXTT5=
EXTT6=
EXTT7=
EXTT8=
EXTT9=
EXTT10=
PLAYORDER=
